<svg width="214" height="212" viewBox="0 0 214 212" fill="none" xmlns="http://www.w3.org/2000/svg">
<path d="M0.375 30C0.375 13.4315 13.8065 0 30.375 0H70.375C86.9435 0 100.375 13.4315 100.375 30V94C100.375 97.3137 97.6887 100 94.375 100H30.375C13.8065 100 0.375 86.5685 0.375 70V30Z" fill="#181818"/>
<path d="M111.625 30C111.625 13.4315 125.056 0 141.625 0H181.625C198.194 0 211.625 13.4315 211.625 30V70C211.625 86.5685 198.194 100 181.625 100H117.625C114.311 100 111.625 97.3137 111.625 94V30Z" fill="#181818"/>
<path d="M1.625 142C1.625 125.431 15.0565 112 31.625 112H95.625C98.9387 112 101.625 114.686 101.625 118V182C101.625 198.569 88.1935 212 71.625 212H31.625C15.0565 212 1.625 198.569 1.625 182V142Z" fill="#181818"/>
<path d="M113.625 118C113.625 114.686 116.311 112 119.625 112H183.625C200.194 112 213.625 125.431 213.625 142V182C213.625 198.569 200.194 212 183.625 212H143.625C127.056 212 113.625 198.569 113.625 182V118Z" fill="#181818"/>
</svg>
