<svg width="59" height="61" viewBox="0 0 59 61" fill="none" xmlns="http://www.w3.org/2000/svg">
<circle cx="29.2117" cy="29.3528" r="28.934" transform="rotate(29.0976 29.2117 29.3528)" fill="#FBFBFB"/>
<path d="M32.1199 25.144C32.1199 23.704 31.3999 22.984 29.9599 22.984H19.8799C18.5119 22.984 17.7199 22.192 17.7199 20.824V12.76C17.7199 11.32 18.5119 10.6 19.8799 10.6H56.7439C58.1839 10.6 58.9039 11.32 58.9039 12.76V20.824C58.9039 22.192 58.1839 22.984 56.7439 22.984H46.6639C45.2959 22.984 44.5039 23.704 44.5039 25.144V58.84C44.5039 60.208 43.7839 61 42.3439 61H34.2799C32.9119 61 32.1199 60.208 32.1199 58.84V25.144Z" fill="black"/>
</svg>
