<svg width="90" height="90" viewBox="0 0 90 90" fill="none" xmlns="http://www.w3.org/2000/svg">
<rect x="16.5" y="16.5" width="58" height="58" stroke="black"/>
<circle cx="45.2117" cy="45.3528" r="42.935" transform="rotate(29.0976 45.2117 45.3528)" fill="black" stroke="white" stroke-width="3"/>
<path d="M58.02 46.124C58.02 44.884 57.4 44.264 56.16 44.264H47.48C46.302 44.264 45.62 43.582 45.62 42.404V35.46C45.62 34.22 46.302 33.6 47.48 33.6H79.224C80.464 33.6 81.084 34.22 81.084 35.46V42.404C81.084 43.582 80.464 44.264 79.224 44.264H70.544C69.366 44.264 68.684 44.884 68.684 46.124V75.14C68.684 76.318 68.064 77 66.824 77H59.88C58.702 77 58.02 76.318 58.02 75.14V46.124Z" fill="white"/>
</svg>
